<mxfile host="app.diagrams.net" modified="2020-11-07T16:08:27.790Z" agent="5.0 (Macintosh; Intel Mac OS X 10_15_5) AppleWebKit/537.36 (KHTML, like Gecko) Chrome/86.0.4240.183 Safari/537.36" etag="v6DACzrtubchnMiJCgxB" version="13.9.2" type="github">
  <diagram id="jFcEyuDrSQIgBu0H3Bs7" name="第 1 页">
    <mxGraphModel dx="1527" dy="981" grid="1" gridSize="10" guides="1" tooltips="1" connect="1" arrows="1" fold="1" page="1" pageScale="1" pageWidth="827" pageHeight="1169" math="0" shadow="0">
      <root>
        <mxCell id="0" />
        <mxCell id="1" parent="0" />
        <mxCell id="eG7onB4RgxSl1z6h0Bb2-2" style="edgeStyle=orthogonalEdgeStyle;rounded=0;orthogonalLoop=1;jettySize=auto;html=1;exitX=0.7;exitY=0;exitDx=0;exitDy=0;exitPerimeter=0;endArrow=none;endFill=0;" edge="1" parent="1" source="eG7onB4RgxSl1z6h0Bb2-1">
          <mxGeometry relative="1" as="geometry">
            <mxPoint x="335.66666666666663" y="120" as="targetPoint" />
          </mxGeometry>
        </mxCell>
        <mxCell id="eG7onB4RgxSl1z6h0Bb2-48" value="输入正电压" style="edgeLabel;html=1;align=center;verticalAlign=middle;resizable=0;points=[];" vertex="1" connectable="0" parent="eG7onB4RgxSl1z6h0Bb2-2">
          <mxGeometry x="0.8988" y="-1" relative="1" as="geometry">
            <mxPoint as="offset" />
          </mxGeometry>
        </mxCell>
        <mxCell id="eG7onB4RgxSl1z6h0Bb2-4" style="edgeStyle=orthogonalEdgeStyle;rounded=0;orthogonalLoop=1;jettySize=auto;html=1;exitX=0.7;exitY=0;exitDx=0;exitDy=0;exitPerimeter=0;endArrow=none;endFill=0;" edge="1" parent="1" source="eG7onB4RgxSl1z6h0Bb2-1">
          <mxGeometry relative="1" as="geometry">
            <mxPoint x="370" y="170" as="targetPoint" />
          </mxGeometry>
        </mxCell>
        <mxCell id="eG7onB4RgxSl1z6h0Bb2-5" style="edgeStyle=orthogonalEdgeStyle;rounded=0;orthogonalLoop=1;jettySize=auto;html=1;exitX=0.7;exitY=1;exitDx=0;exitDy=0;exitPerimeter=0;endArrow=none;endFill=0;" edge="1" parent="1" source="eG7onB4RgxSl1z6h0Bb2-1">
          <mxGeometry relative="1" as="geometry">
            <mxPoint x="335.66666666666663" y="300" as="targetPoint" />
          </mxGeometry>
        </mxCell>
        <mxCell id="eG7onB4RgxSl1z6h0Bb2-6" style="edgeStyle=orthogonalEdgeStyle;rounded=0;orthogonalLoop=1;jettySize=auto;html=1;exitX=0;exitY=0.5;exitDx=0;exitDy=0;exitPerimeter=0;endArrow=none;endFill=0;" edge="1" parent="1" source="eG7onB4RgxSl1z6h0Bb2-1">
          <mxGeometry relative="1" as="geometry">
            <mxPoint x="240" y="220" as="targetPoint" />
          </mxGeometry>
        </mxCell>
        <mxCell id="eG7onB4RgxSl1z6h0Bb2-1" value="" style="verticalLabelPosition=bottom;shadow=0;dashed=0;align=center;html=1;verticalAlign=top;shape=mxgraph.electrical.transistors.npn_transistor_1;fillColor=#FFF2CC;" vertex="1" parent="1">
          <mxGeometry x="270" y="170" width="95" height="100" as="geometry" />
        </mxCell>
        <mxCell id="eG7onB4RgxSl1z6h0Bb2-7" value="" style="pointerEvents=1;verticalLabelPosition=bottom;shadow=0;dashed=0;align=center;html=1;verticalAlign=top;shape=mxgraph.electrical.signal_sources.protective_earth;" vertex="1" parent="1">
          <mxGeometry x="323.2" y="300" width="25" height="20" as="geometry" />
        </mxCell>
        <mxCell id="eG7onB4RgxSl1z6h0Bb2-22" style="edgeStyle=orthogonalEdgeStyle;rounded=0;orthogonalLoop=1;jettySize=auto;html=1;exitX=0;exitY=0.5;exitDx=0;exitDy=0;exitPerimeter=0;endArrow=none;endFill=0;" edge="1" parent="1">
          <mxGeometry relative="1" as="geometry">
            <mxPoint x="260" y="498" as="targetPoint" />
            <mxPoint x="260" y="463" as="sourcePoint" />
          </mxGeometry>
        </mxCell>
        <mxCell id="eG7onB4RgxSl1z6h0Bb2-25" value="input" style="edgeLabel;html=1;align=center;verticalAlign=middle;resizable=0;points=[];" vertex="1" connectable="0" parent="eG7onB4RgxSl1z6h0Bb2-22">
          <mxGeometry x="-0.2163" y="1" relative="1" as="geometry">
            <mxPoint as="offset" />
          </mxGeometry>
        </mxCell>
        <mxCell id="eG7onB4RgxSl1z6h0Bb2-8" value="" style="verticalLabelPosition=bottom;shadow=0;dashed=0;align=center;html=1;verticalAlign=top;shape=mxgraph.electrical.transistors.npn_transistor_1;direction=north;fillColor=#FFF2CC;" vertex="1" parent="1">
          <mxGeometry x="210" y="370" width="100" height="95" as="geometry" />
        </mxCell>
        <mxCell id="eG7onB4RgxSl1z6h0Bb2-15" style="edgeStyle=orthogonalEdgeStyle;rounded=0;orthogonalLoop=1;jettySize=auto;html=1;exitX=0;exitY=0.5;exitDx=0;exitDy=0;exitPerimeter=0;endArrow=none;endFill=0;" edge="1" parent="1">
          <mxGeometry relative="1" as="geometry">
            <mxPoint x="179.95" y="399.3" as="targetPoint" />
            <mxPoint x="211.99545454545455" y="399.3" as="sourcePoint" />
          </mxGeometry>
        </mxCell>
        <mxCell id="eG7onB4RgxSl1z6h0Bb2-23" style="edgeStyle=orthogonalEdgeStyle;rounded=0;orthogonalLoop=1;jettySize=auto;html=1;exitX=0;exitY=0.5;exitDx=0;exitDy=0;exitPerimeter=0;endArrow=none;endFill=0;" edge="1" parent="1">
          <mxGeometry relative="1" as="geometry">
            <mxPoint x="400" y="498" as="targetPoint" />
            <mxPoint x="400" y="463" as="sourcePoint" />
          </mxGeometry>
        </mxCell>
        <mxCell id="eG7onB4RgxSl1z6h0Bb2-24" value="input" style="edgeLabel;html=1;align=center;verticalAlign=middle;resizable=0;points=[];" vertex="1" connectable="0" parent="eG7onB4RgxSl1z6h0Bb2-23">
          <mxGeometry x="-0.0531" y="1" relative="1" as="geometry">
            <mxPoint as="offset" />
          </mxGeometry>
        </mxCell>
        <mxCell id="eG7onB4RgxSl1z6h0Bb2-16" value="" style="verticalLabelPosition=bottom;shadow=0;dashed=0;align=center;html=1;verticalAlign=top;shape=mxgraph.electrical.transistors.npn_transistor_1;direction=north;fillColor=#FFF2CC;" vertex="1" parent="1">
          <mxGeometry x="350" y="370" width="100" height="95" as="geometry" />
        </mxCell>
        <mxCell id="eG7onB4RgxSl1z6h0Bb2-18" style="edgeStyle=orthogonalEdgeStyle;rounded=0;orthogonalLoop=1;jettySize=auto;html=1;endArrow=none;endFill=0;" edge="1" parent="1">
          <mxGeometry relative="1" as="geometry">
            <mxPoint x="310" y="399.3" as="targetPoint" />
            <mxPoint x="350" y="399.3" as="sourcePoint" />
            <Array as="points">
              <mxPoint x="330" y="400" />
            </Array>
          </mxGeometry>
        </mxCell>
        <mxCell id="eG7onB4RgxSl1z6h0Bb2-19" style="edgeStyle=orthogonalEdgeStyle;rounded=0;orthogonalLoop=1;jettySize=auto;html=1;endArrow=none;endFill=0;" edge="1" parent="1">
          <mxGeometry relative="1" as="geometry">
            <mxPoint x="450" y="399.3" as="targetPoint" />
            <mxPoint x="490" y="399.3" as="sourcePoint" />
            <Array as="points">
              <mxPoint x="470" y="400" />
              <mxPoint x="470" y="400" />
            </Array>
          </mxGeometry>
        </mxCell>
        <mxCell id="eG7onB4RgxSl1z6h0Bb2-28" value="output" style="edgeLabel;html=1;align=center;verticalAlign=middle;resizable=0;points=[];" vertex="1" connectable="0" parent="eG7onB4RgxSl1z6h0Bb2-19">
          <mxGeometry y="15" relative="1" as="geometry">
            <mxPoint x="15" y="-15" as="offset" />
          </mxGeometry>
        </mxCell>
        <mxCell id="eG7onB4RgxSl1z6h0Bb2-27" value="&lt;span style=&quot;font-size: 11px ; background-color: rgb(255 , 255 , 255)&quot;&gt;输入正电压&lt;/span&gt;" style="text;html=1;strokeColor=none;fillColor=none;align=center;verticalAlign=middle;whiteSpace=wrap;rounded=0;" vertex="1" parent="1">
          <mxGeometry x="120" y="380" width="70" height="30" as="geometry" />
        </mxCell>
        <mxCell id="eG7onB4RgxSl1z6h0Bb2-37" style="edgeStyle=orthogonalEdgeStyle;rounded=0;orthogonalLoop=1;jettySize=auto;html=1;exitX=0;exitY=0.5;exitDx=0;exitDy=0;exitPerimeter=0;endArrow=none;endFill=0;" edge="1" parent="1">
          <mxGeometry relative="1" as="geometry">
            <mxPoint x="260" y="788" as="targetPoint" />
            <mxPoint x="260" y="753" as="sourcePoint" />
          </mxGeometry>
        </mxCell>
        <mxCell id="eG7onB4RgxSl1z6h0Bb2-52" value="input" style="edgeLabel;html=1;align=center;verticalAlign=middle;resizable=0;points=[];" vertex="1" connectable="0" parent="eG7onB4RgxSl1z6h0Bb2-37">
          <mxGeometry x="0.1496" y="-1" relative="1" as="geometry">
            <mxPoint as="offset" />
          </mxGeometry>
        </mxCell>
        <mxCell id="eG7onB4RgxSl1z6h0Bb2-29" value="" style="verticalLabelPosition=bottom;shadow=0;dashed=0;align=center;html=1;verticalAlign=top;shape=mxgraph.electrical.transistors.npn_transistor_1;direction=north;fillColor=#FFF2CC;" vertex="1" parent="1">
          <mxGeometry x="210" y="660" width="100" height="95" as="geometry" />
        </mxCell>
        <mxCell id="eG7onB4RgxSl1z6h0Bb2-36" style="edgeStyle=orthogonalEdgeStyle;rounded=0;orthogonalLoop=1;jettySize=auto;html=1;exitX=0;exitY=0.5;exitDx=0;exitDy=0;exitPerimeter=0;endArrow=none;endFill=0;" edge="1" parent="1">
          <mxGeometry relative="1" as="geometry">
            <mxPoint x="400" y="788" as="targetPoint" />
            <mxPoint x="400" y="630" as="sourcePoint" />
          </mxGeometry>
        </mxCell>
        <mxCell id="eG7onB4RgxSl1z6h0Bb2-53" value="input" style="edgeLabel;html=1;align=center;verticalAlign=middle;resizable=0;points=[];" vertex="1" connectable="0" parent="eG7onB4RgxSl1z6h0Bb2-36">
          <mxGeometry x="0.6776" y="-2" relative="1" as="geometry">
            <mxPoint as="offset" />
          </mxGeometry>
        </mxCell>
        <mxCell id="eG7onB4RgxSl1z6h0Bb2-30" value="" style="verticalLabelPosition=bottom;shadow=0;dashed=0;align=center;html=1;verticalAlign=top;shape=mxgraph.electrical.transistors.npn_transistor_1;direction=north;fillColor=#FFF2CC;" vertex="1" parent="1">
          <mxGeometry x="350" y="537" width="100" height="95" as="geometry" />
        </mxCell>
        <mxCell id="eG7onB4RgxSl1z6h0Bb2-32" value="" style="endArrow=none;html=1;" edge="1" parent="1">
          <mxGeometry width="50" height="50" relative="1" as="geometry">
            <mxPoint x="201" y="566.3" as="sourcePoint" />
            <mxPoint x="350" y="566.3" as="targetPoint" />
          </mxGeometry>
        </mxCell>
        <mxCell id="eG7onB4RgxSl1z6h0Bb2-33" value="" style="endArrow=none;html=1;" edge="1" parent="1">
          <mxGeometry width="50" height="50" relative="1" as="geometry">
            <mxPoint x="201" y="689.3" as="sourcePoint" />
            <mxPoint x="211" y="689.3" as="targetPoint" />
          </mxGeometry>
        </mxCell>
        <mxCell id="eG7onB4RgxSl1z6h0Bb2-34" value="" style="endArrow=none;html=1;" edge="1" parent="1">
          <mxGeometry width="50" height="50" relative="1" as="geometry">
            <mxPoint x="201" y="689.3" as="sourcePoint" />
            <mxPoint x="201" y="566.3" as="targetPoint" />
          </mxGeometry>
        </mxCell>
        <mxCell id="eG7onB4RgxSl1z6h0Bb2-35" value="" style="endArrow=none;html=1;" edge="1" parent="1">
          <mxGeometry width="50" height="50" relative="1" as="geometry">
            <mxPoint x="170" y="625" as="sourcePoint" />
            <mxPoint x="201" y="625" as="targetPoint" />
          </mxGeometry>
        </mxCell>
        <mxCell id="eG7onB4RgxSl1z6h0Bb2-39" value="" style="endArrow=none;html=1;" edge="1" parent="1">
          <mxGeometry width="50" height="50" relative="1" as="geometry">
            <mxPoint x="390" y="689.3" as="sourcePoint" />
            <mxPoint x="410" y="689.3" as="targetPoint" />
            <Array as="points">
              <mxPoint x="400" y="680" />
            </Array>
          </mxGeometry>
        </mxCell>
        <mxCell id="eG7onB4RgxSl1z6h0Bb2-40" value="" style="endArrow=none;html=1;" edge="1" parent="1">
          <mxGeometry width="50" height="50" relative="1" as="geometry">
            <mxPoint x="310" y="689.3" as="sourcePoint" />
            <mxPoint x="390" y="689.3" as="targetPoint" />
          </mxGeometry>
        </mxCell>
        <mxCell id="eG7onB4RgxSl1z6h0Bb2-41" value="" style="endArrow=none;html=1;" edge="1" parent="1">
          <mxGeometry width="50" height="50" relative="1" as="geometry">
            <mxPoint x="410" y="689.3" as="sourcePoint" />
            <mxPoint x="490" y="689.3" as="targetPoint" />
          </mxGeometry>
        </mxCell>
        <mxCell id="eG7onB4RgxSl1z6h0Bb2-42" value="" style="endArrow=none;html=1;" edge="1" parent="1">
          <mxGeometry width="50" height="50" relative="1" as="geometry">
            <mxPoint x="450" y="566.3" as="sourcePoint" />
            <mxPoint x="490" y="566.3" as="targetPoint" />
          </mxGeometry>
        </mxCell>
        <mxCell id="eG7onB4RgxSl1z6h0Bb2-43" value="" style="endArrow=none;html=1;" edge="1" parent="1">
          <mxGeometry width="50" height="50" relative="1" as="geometry">
            <mxPoint x="490" y="690" as="sourcePoint" />
            <mxPoint x="490" y="566.3" as="targetPoint" />
          </mxGeometry>
        </mxCell>
        <mxCell id="eG7onB4RgxSl1z6h0Bb2-44" value="" style="endArrow=none;html=1;" edge="1" parent="1">
          <mxGeometry width="50" height="50" relative="1" as="geometry">
            <mxPoint x="490" y="625" as="sourcePoint" />
            <mxPoint x="521" y="625" as="targetPoint" />
          </mxGeometry>
        </mxCell>
        <mxCell id="eG7onB4RgxSl1z6h0Bb2-45" value="&lt;span style=&quot;font-size: 11px ; background-color: rgb(255 , 255 , 255)&quot;&gt;输入正电压&lt;/span&gt;" style="text;html=1;strokeColor=none;fillColor=none;align=center;verticalAlign=middle;whiteSpace=wrap;rounded=0;" vertex="1" parent="1">
          <mxGeometry x="120" y="600" width="70" height="30" as="geometry" />
        </mxCell>
        <mxCell id="eG7onB4RgxSl1z6h0Bb2-46" value="&lt;span style=&quot;font-size: 11px ; background-color: rgb(255 , 255 , 255)&quot;&gt;input&lt;/span&gt;" style="text;html=1;strokeColor=none;fillColor=none;align=center;verticalAlign=middle;whiteSpace=wrap;rounded=0;" vertex="1" parent="1">
          <mxGeometry x="190" y="190" width="70" height="30" as="geometry" />
        </mxCell>
        <mxCell id="eG7onB4RgxSl1z6h0Bb2-47" value="output" style="text;html=1;strokeColor=none;fillColor=none;align=center;verticalAlign=middle;whiteSpace=wrap;rounded=0;" vertex="1" parent="1">
          <mxGeometry x="365" y="150" width="40" height="20" as="geometry" />
        </mxCell>
        <mxCell id="eG7onB4RgxSl1z6h0Bb2-49" value="&lt;font style=&quot;font-size: 20px&quot;&gt;（1）&lt;/font&gt;" style="text;html=1;strokeColor=none;fillColor=none;align=center;verticalAlign=middle;whiteSpace=wrap;rounded=0;" vertex="1" parent="1">
          <mxGeometry x="316" y="340" width="40" height="20" as="geometry" />
        </mxCell>
        <mxCell id="eG7onB4RgxSl1z6h0Bb2-50" value="&lt;font style=&quot;font-size: 20px&quot;&gt;（2）&lt;/font&gt;" style="text;html=1;strokeColor=none;fillColor=none;align=center;verticalAlign=middle;whiteSpace=wrap;rounded=0;" vertex="1" parent="1">
          <mxGeometry x="315.7" y="500" width="40" height="20" as="geometry" />
        </mxCell>
        <mxCell id="eG7onB4RgxSl1z6h0Bb2-51" value="&lt;font style=&quot;font-size: 20px&quot;&gt;（3）&lt;/font&gt;" style="text;html=1;strokeColor=none;fillColor=none;align=center;verticalAlign=middle;whiteSpace=wrap;rounded=0;" vertex="1" parent="1">
          <mxGeometry x="316" y="800" width="40" height="20" as="geometry" />
        </mxCell>
        <mxCell id="eG7onB4RgxSl1z6h0Bb2-54" value="output" style="text;html=1;align=center;verticalAlign=middle;resizable=0;points=[];autosize=1;" vertex="1" parent="1">
          <mxGeometry x="510" y="612" width="50" height="20" as="geometry" />
        </mxCell>
      </root>
    </mxGraphModel>
  </diagram>
</mxfile>
